<svg width="264" height="280" viewBox="0 0 264 280" fill="none" xmlns="http://www.w3.org/2000/svg">
<mask id="mask0_101_128" style="mask-type:alpha" maskUnits="userSpaceOnUse" x="12" y="40" width="240" height="240">
<path d="M132 280C198.274 280 252 226.274 252 160C252 93.7258 198.274 40 132 40C65.7258 40 12 93.7258 12 160C12 226.274 65.7258 280 132 280Z" fill="white"/>
</mask>
<g mask="url(#mask0_101_128)">
<path d="M132 280C198.274 280 252 226.274 252 160C252 93.7258 198.274 40 132 40C65.7258 40 12 93.7258 12 160C12 226.274 65.7258 280 132 280Z" fill="#E6E6E6"/>
<path d="M252 40H12V280H252V40Z" fill="#FE7F57"/>
</g>
<mask id="mask1_101_128" style="mask-type:alpha" maskUnits="userSpaceOnUse" x="0" y="0" width="264" height="280">
<path d="M12 160C12 226.274 65.7258 280 132 280C198.274 280 252 226.274 252 160H264V0H0V160H12Z" fill="white"/>
</mask>
<g mask="url(#mask1_101_128)">
<mask id="mask2_101_128" style="mask-type:alpha" maskUnits="userSpaceOnUse" x="32" y="36" width="200" height="244">
<path d="M156 180.611V199H160C199.765 199 232 231.235 232 271V280H32V271C32 231.235 64.2355 199 104 199H108V180.611C90.7626 172.422 78.3722 155.687 76.3051 135.881C70.4803 135.058 66 130.052 66 124V110C66 104.054 70.3246 99.1181 76 98.1659V92C76 61.0721 101.072 36 132 36C162.928 36 188 61.0721 188 92V98.1659C193.675 99.1181 198 104.054 198 110V124C198 130.052 193.52 135.058 187.695 135.881C185.628 155.687 173.237 172.422 156 180.611Z" fill="white"/>
</mask>
<g mask="url(#mask2_101_128)">
<path d="M138.193 143.126L132 146.067L125.807 143.126C121.265 140.968 118.103 136.573 117.581 131.573L117.5 130.798V98.1659V92C117.5 83.9919 123.992 77.5 132 77.5C140.008 77.5 146.5 83.9919 146.5 92V98.1659V130.798L146.419 131.573C145.897 136.573 142.735 140.968 138.193 143.126Z" fill="#D0C6AC" stroke="black" stroke-width="83"/>
<path d="M296 36H32V316H296V36Z" fill="#FDD496"/>
<path fill-rule="evenodd" clip-rule="evenodd" d="M188 115V138C188 168.928 162.928 194 132 194C101.072 194 76 168.928 76 138V115V130C76 160.928 101.072 186 132 186C162.928 186 188 160.928 188 130V115Z" fill="black" fill-opacity="0.1"/>
</g>
<path fill-rule="evenodd" clip-rule="evenodd" d="M118 150C118 157.732 124.268 164 132 164C139.732 164 146 157.732 146 150" fill="black" fill-opacity="0.7"/>
<path fill-rule="evenodd" clip-rule="evenodd" d="M120 131C120 135.418 125.373 139 132 139C138.627 139 144 135.418 144 131" fill="black" fill-opacity="0.16"/>
<path d="M106 118C109.314 118 112 115.314 112 112C112 108.686 109.314 106 106 106C102.686 106 100 108.686 100 112C100 115.314 102.686 118 106 118Z" fill="black" fill-opacity="0.7"/>
<path d="M158 118C161.314 118 164 115.314 164 112C164 108.686 161.314 106 158 106C154.686 106 152 108.686 152 112C152 115.314 154.686 118 158 118Z" fill="black" fill-opacity="0.7"/>
<path d="M117 90.0002C110.833 88.5002 96.5 87.8002 88.5 97.0002" stroke="#132820" stroke-width="3" stroke-linecap="round"/>
<path d="M147.5 90.0002C153.667 88.5002 168 87.8002 176 97.0002" stroke="#132820" stroke-width="3" stroke-linecap="round"/>
<mask id="mask3_101_128" style="mask-type:alpha" maskUnits="userSpaceOnUse" x="0" y="0" width="264" height="280">
<path d="M264 0H0V280H264V0Z" fill="white"/>
</mask>
<g mask="url(#mask3_101_128)">
<mask id="mask4_101_128" style="mask-type:alpha" maskUnits="userSpaceOnUse" x="39" y="15" width="201" height="252">
<path fill-rule="evenodd" clip-rule="evenodd" d="M60 172.541V84.0464C60 80.5142 60.3981 77.075 61.1519 73.7712C64.205 53.7316 75.7753 37.8111 89 28.0002C108.905 13.2406 142.442 8.98191 154.047 26.5223C162.698 22.6812 175.519 26.1823 185 35.0002C194.565 44.4152 202.2 65.1976 197.657 82.2037C197.762 83.4694 197.815 84.7492 197.815 86.0411V107.892C196.934 102.918 192.989 99.0031 188 98.1661V98.0002C181.964 76.4644 164.23 66.5802 153.43 56.7773C136.535 75.6735 83.8226 75.74 66 113V123C66 129.019 70.4309 134.003 76.2086 134.867C77.9518 155.115 90.4692 172.283 108 180.611V181C110.93 224.855 101.358 279.798 39 263C52.6057 255.038 59.8081 204.056 60 172.541ZM156 180.611C173.531 172.283 186.048 155.115 187.791 134.867C192.879 134.106 196.922 130.151 197.815 125.108V126.471C197.815 142.299 201.573 157.901 208.778 171.994L235.727 224.701C242.69 238.32 240.646 254.174 231.791 265.469C228.966 228.289 197.903 199 160 199H156V180.611Z" fill="white"/>
</mask>
<g mask="url(#mask4_101_128)">
<path fill-rule="evenodd" clip-rule="evenodd" d="M60 172.541V84.0464C60 80.5142 60.3981 77.075 61.1519 73.7712C64.205 53.7316 75.7753 37.8111 89 28.0002C108.905 13.2406 142.442 8.98191 154.047 26.5223C162.698 22.6812 175.519 26.1823 185 35.0002C194.565 44.4152 202.2 65.1976 197.657 82.2037C197.762 83.4694 197.815 84.7492 197.815 86.0411V107.892C196.934 102.918 192.989 99.0031 188 98.1661V98.0002C181.964 76.4644 164.23 66.5802 153.43 56.7773C136.535 75.6735 83.8226 75.74 66 113V123C66 129.019 70.4309 134.003 76.2086 134.867C77.9518 155.115 90.4692 172.283 108 180.611V181C110.93 224.855 101.358 279.798 39 263C52.6057 255.038 59.8081 204.056 60 172.541ZM156 180.611C173.531 172.283 186.048 155.115 187.791 134.867C192.879 134.106 196.922 130.151 197.815 125.108V126.471C197.815 142.299 201.573 157.901 208.778 171.994L235.727 224.701C242.69 238.32 240.646 254.174 231.791 265.469C228.966 228.289 197.903 199 160 199H156V180.611Z" fill="#132820"/>
</g>
<path d="M95.7981 98.5002H107.372C110.395 98.5002 111.727 98.5049 112.73 98.6614C119.783 99.761 124.761 106.161 124.091 113.268C123.996 114.279 123.672 115.572 122.928 118.501L122.786 119.06C122.499 120.191 122.374 120.677 122.165 121.264C120.87 124.891 117.218 128.419 113.548 129.588C112.946 129.78 112.644 129.846 111.933 130.001C108.172 130.819 104.087 131.5 100.984 131.5C98.3639 131.5 95.1844 131.141 92.1269 130.663C91.3353 130.539 90.9991 130.486 90.3351 130.311C86.2739 129.242 82.2342 125.426 80.935 121.433C80.7257 120.789 80.6078 120.249 80.3371 118.993L80.1083 117.931C79.4923 115.072 79.2253 113.812 79.165 112.819C78.7416 105.851 83.7008 99.709 90.6019 98.655C91.5858 98.5047 92.8738 98.5002 95.7981 98.5002Z" stroke="#804533" stroke-width="3"/>
<path d="M170.17 98.5002H158.596C155.574 98.5002 154.241 98.5049 153.238 98.6614C146.185 99.761 141.207 106.161 141.877 113.268C141.973 114.279 142.296 115.572 143.04 118.501L143.182 119.06C143.469 120.191 143.594 120.677 143.803 121.264C145.098 124.891 148.751 128.419 152.42 129.588C153.023 129.78 153.325 129.846 154.035 130.001C157.797 130.819 161.881 131.5 164.984 131.5C167.604 131.5 170.784 131.141 173.841 130.663C174.633 130.539 174.969 130.486 175.633 130.311C179.694 129.242 183.734 125.426 185.033 121.433C185.243 120.789 185.36 120.249 185.631 118.993L185.86 117.931C186.476 115.072 186.743 113.812 186.803 112.819C187.227 105.851 182.267 99.709 175.366 98.655C174.382 98.5047 173.095 98.5002 170.17 98.5002Z" stroke="#804533" stroke-width="3"/>
<path fill-rule="evenodd" clip-rule="evenodd" d="M70 105.013V101.013C94.7873 87.8135 116.899 93.8468 124.857 98.5134H138.063C163.257 88.1134 188.519 95.8467 198 101.013V105.013L189.365 108.013H187.64C185.968 102.7 181.399 98.5723 175.593 97.6855C174.467 97.5136 173.035 97.5136 170.17 97.5136H158.596C155.635 97.5136 154.155 97.5136 153.007 97.6926C147.23 98.5932 142.706 102.694 141.025 107.95C134.615 103.287 127.7 105.965 124.943 107.951C123.262 102.694 118.738 98.5932 112.961 97.6926C111.813 97.5136 110.333 97.5136 107.372 97.5136H95.7981C92.9335 97.5136 91.5013 97.5136 90.3754 97.6855C84.5695 98.5723 80.0005 102.7 78.3282 108.013H78.127L70 105.013Z" fill="#804533"/>
</g>
<mask id="mask5_101_128" style="mask-type:alpha" maskUnits="userSpaceOnUse" x="32" y="183" width="200" height="97">
<path fill-rule="evenodd" clip-rule="evenodd" d="M108 183.071C90.0813 185.076 76.2798 190.552 76.0042 204.645C50.1464 215.568 32 241.165 32 270.999V280H232V270.999C232 241.165 213.854 215.568 187.996 204.645C187.72 190.552 173.919 185.076 156 183.071V202C156 215.255 145.255 226 132 226C118.745 226 108 215.255 108 202V183.071Z" fill="white"/>
</mask>
<g mask="url(#mask5_101_128)">
<path fill-rule="evenodd" clip-rule="evenodd" d="M108 183.071C90.0813 185.076 76.2798 190.552 76.0042 204.645C50.1464 215.568 32 241.165 32 270.999V280H232V270.999C232 241.165 213.854 215.568 187.996 204.645C187.72 190.552 173.919 185.076 156 183.071V202C156 215.255 145.255 226 132 226C118.745 226 108 215.255 108 202V183.071Z" fill="#B7C1DB"/>
<path d="M264 170H0V280H264V170Z" fill="#9C8E7C"/>
<path fill-rule="evenodd" clip-rule="evenodd" d="M102 231.739V280H95V228.15C97.2038 229.46 99.5468 230.661 102 231.739ZM169 228.15V268.5C169 270.433 167.433 272 165.5 272C163.567 272 162 270.433 162 268.5V231.739C164.453 230.661 166.796 229.46 169 228.15Z" fill="#F4F4F4"/>
<path fill-rule="evenodd" clip-rule="evenodd" d="M90.9601 182.724C75.9093 185.571 65.5 191.243 65.5 202.308C65.5 222.02 98.5377 238 132 238C165.462 238 198.5 222.02 198.5 202.308C198.5 191.243 188.091 185.571 173.04 182.724C182.125 186.074 188 191.706 188 201.077C188 221.469 160.179 238 132 238C103.821 238 76 221.469 76 201.077C76 191.706 81.8751 186.074 90.9601 182.724Z" fill="black" fill-opacity="0.16"/>
</g>
</g>
</svg>
