<svg width="640" height="200" viewBox="0 0 640 200" fill="none" xmlns="http://www.w3.org/2000/svg">
<g opacity="0.9">
<path d="M291.172 83.8959C288.761 83.8959 287.057 81.536 287.815 79.2474L300.035 42.381C300.822 40.0042 303.045 38.3996 305.549 38.3996V38.3996C308.047 38.3996 310.266 39.9973 311.058 42.3669L323.292 78.9665C324.103 81.3907 322.299 83.8959 319.743 83.8959V83.8959C318.116 83.8959 316.676 82.8459 316.179 81.2977L314.49 76.0396C313.959 74.385 312.42 73.2629 310.682 73.2629H300.082C298.344 73.2629 296.805 74.385 296.273 76.0396L294.538 81.4413C294.069 82.9039 292.708 83.8959 291.172 83.8959V83.8959ZM299.367 64.6885C298.977 65.9732 299.938 67.2698 301.281 67.2698H309.547C310.89 67.2698 311.851 65.9732 311.461 64.6885L307.328 51.0801C306.753 49.1884 304.075 49.1884 303.5 51.0801L299.367 64.6885Z" fill="#4D4D4D"/>
<path d="M340.831 83.8959C339.034 83.8959 337.577 82.4389 337.577 80.6416V43.0715C337.577 40.6336 339.553 38.6574 341.991 38.6574V38.6574C343.497 38.6574 344.898 39.4249 345.71 40.6935L362.44 66.856C363.516 68.5397 366.125 67.7771 366.125 65.7785V42.0084C366.125 40.2289 367.567 38.7863 369.347 38.7863V38.7863C371.126 38.7863 372.569 40.2289 372.569 42.0084V79.6051C372.569 82.046 370.59 84.0248 368.149 84.0248V84.0248C366.646 84.0248 365.246 83.261 364.433 81.9973L347.767 56.1057C346.687 54.4278 344.085 55.1927 344.085 57.1882V80.6416C344.085 82.4389 342.628 83.8959 340.831 83.8959V83.8959Z" fill="#4D4D4D"/>
<path d="M392.05 83.8959C390.253 83.8959 388.796 82.4389 388.796 80.6416V43.0715C388.796 40.6336 390.772 38.6574 393.21 38.6574V38.6574C394.716 38.6574 396.118 39.4249 396.929 40.6935L413.659 66.856C414.736 68.5397 417.344 67.7771 417.344 65.7785V42.0084C417.344 40.2289 418.786 38.7863 420.566 38.7863V38.7863C422.345 38.7863 423.788 40.2289 423.788 42.0084V79.6051C423.788 82.046 421.809 84.0248 419.368 84.0248V84.0248C417.865 84.0248 416.465 83.261 415.652 81.9973L398.986 56.1057C397.906 54.4278 395.304 55.1927 395.304 57.1882V80.6416C395.304 82.4389 393.847 83.8959 392.05 83.8959V83.8959Z" fill="#4D4D4D"/>
<path d="M443.297 54.7159C442.817 55.628 441.809 56.1138 440.784 56.0013V56.0013C438.999 55.8055 437.925 53.9302 438.494 52.2274C438.847 51.1686 439.14 50.1251 439.37 49.097C439.843 46.9919 440.079 44.672 440.079 42.1373C440.079 41.5788 440.058 41.0203 440.015 40.4618V40.4618C440.015 39.5571 440.723 38.7863 441.628 38.7863H445.039C445.701 38.7863 446.266 39.2845 446.266 39.9462V39.9462C446.266 40.3329 446.266 40.7195 446.266 41.1062C446.266 44.2853 445.965 47.0564 445.364 49.4193C444.896 51.2238 444.207 52.9894 443.297 54.7159Z" fill="#4D4D4D"/>
<path d="M487.472 39.4716C488.917 39.8071 489.691 41.2949 489.316 42.7305L489.207 43.1485C488.827 44.6007 487.257 45.4078 485.788 45.1016V45.1016C484.756 44.8438 483.682 44.629 482.565 44.4572C481.448 44.2853 480.331 44.1565 479.214 44.0705C478.097 43.9846 477.045 43.9417 476.057 43.9417C473.006 43.9417 470.579 44.4787 468.775 45.5527C466.97 46.6268 466.068 48.1519 466.068 50.1281C466.068 51.1162 466.283 51.9969 466.713 52.7703C467.185 53.5006 467.894 54.188 468.839 54.8324C469.827 55.4768 471.116 56.1213 472.706 56.7657C474.295 57.3671 476.207 58.0116 478.441 58.6989C480.847 59.4293 482.909 60.2241 484.628 61.0833C486.346 61.9425 487.764 62.8877 488.881 63.9188C489.998 64.9069 490.814 66.0669 491.33 67.3987C491.845 68.6875 492.103 70.1912 492.103 71.9096C492.103 74.6162 491.394 76.9146 489.976 78.805C488.559 80.6523 486.496 82.07 483.79 83.0581C481.083 84.0463 477.754 84.5403 473.801 84.5403C472.512 84.5403 471.138 84.4759 469.677 84.347C468.216 84.2181 466.734 84.0463 465.23 83.8315C463.77 83.5737 462.352 83.273 460.977 82.9293C460.612 82.8349 460.256 82.7389 459.909 82.6413C458.461 82.2331 457.678 80.7134 458.078 79.2629V79.2629C458.528 77.6322 460.283 76.7389 461.925 77.1455C462.08 77.1837 462.237 77.2214 462.395 77.2583C463.684 77.5591 465.016 77.8383 466.39 78.0961C467.765 78.3109 469.118 78.4827 470.45 78.6116C471.782 78.7405 473.028 78.805 474.188 78.805C476.508 78.805 478.441 78.5687 479.988 78.0961C481.534 77.5805 482.716 76.8502 483.532 75.905C484.348 74.9599 484.756 73.8214 484.756 72.4896C484.756 71.5015 484.477 70.6208 483.919 69.8475C483.36 69.0742 482.522 68.3868 481.405 67.7853C480.331 67.1409 478.935 66.4965 477.217 65.852C475.498 65.2076 473.479 64.4988 471.159 63.7254C468.968 62.9951 467.078 62.2003 465.488 61.3411C463.942 60.4819 462.653 59.5367 461.622 58.5056C460.634 57.4745 459.882 56.3146 459.366 55.0257C458.894 53.7369 458.657 52.2547 458.657 50.5792C458.657 48.7748 459.022 47.1208 459.753 45.6172C460.483 44.0705 461.557 42.7387 462.975 41.6217C464.436 40.5047 466.262 39.6455 468.453 39.044C470.644 38.4426 473.178 38.1418 476.057 38.1418C477.732 38.1418 479.429 38.2492 481.148 38.4641C482.866 38.6359 484.499 38.8722 486.045 39.1729C486.549 39.2682 487.024 39.3677 487.472 39.4716Z" fill="#4D4D4D"/>
<path d="M293.458 163.801C291.465 163.801 289.849 162.185 289.849 160.192V125.501C289.849 121.529 292.97 118.255 296.938 118.082V118.082C298.957 117.997 300.654 117.954 302.029 117.954C303.404 117.911 304.478 117.889 305.251 117.889C309.075 117.889 312.211 118.168 314.66 118.727C317.108 119.285 319.042 120.166 320.459 121.369C321.877 122.572 322.865 124.14 323.424 126.073C324.025 128.007 324.326 130.348 324.326 133.098C324.326 135.976 324.004 138.446 323.359 140.508C322.758 142.528 321.77 144.182 320.395 145.47C319.063 146.759 317.302 147.704 315.111 148.306C312.963 148.907 310.342 149.208 307.249 149.208C306.347 149.208 305.573 149.208 304.929 149.208C304.284 149.208 303.683 149.208 303.124 149.208C302.566 149.208 302.007 149.208 301.449 149.208C300.89 149.165 300.246 149.144 299.516 149.144V149.144C298.182 149.06 297.067 150.131 297.067 151.467V160.192C297.067 162.185 295.451 163.801 293.458 163.801V163.801ZM300.16 123.818C298.435 123.904 297.067 125.315 297.067 127.043V140.956C297.067 142.222 298.058 143.265 299.322 143.344V143.344C300.01 143.344 300.654 143.365 301.256 143.408C301.857 143.408 302.459 143.408 303.06 143.408C303.704 143.408 304.392 143.408 305.122 143.408C307.485 143.408 309.44 143.236 310.986 142.893C312.533 142.506 313.736 141.905 314.595 141.088C315.497 140.272 316.12 139.198 316.464 137.866C316.851 136.534 317.044 134.923 317.044 133.033C317.044 131.315 316.872 129.875 316.528 128.715C316.185 127.556 315.605 126.61 314.789 125.88C313.972 125.107 312.834 124.548 311.373 124.205C309.912 123.818 308.065 123.625 305.831 123.625C305.273 123.625 304.714 123.646 304.156 123.689C303.64 123.689 303.06 123.71 302.416 123.753C301.771 123.753 301.019 123.775 300.16 123.818V123.818Z" fill="#4D4D4D"/>
<path d="M374.005 164.288C372.845 164.288 371.685 164.073 370.525 163.643C369.365 163.257 368.184 162.634 366.981 161.774C365.821 160.872 364.618 159.755 363.372 158.423C362.126 157.049 360.794 155.416 359.377 153.526C358.248 151.939 357.062 150.164 355.817 148.2C355.311 147.401 354.394 146.953 353.448 146.953V146.953C352.803 146.953 352.288 146.953 351.901 146.953C350.913 146.953 349.839 146.953 348.679 146.953V146.953C346.89 146.953 345.407 148.387 345.423 150.175L345.516 160.137C345.535 162.155 343.904 163.801 341.886 163.801V163.801C339.886 163.801 338.263 162.184 338.256 160.184L338.131 124.278C338.119 121.017 340.653 118.306 343.91 118.147V118.147C345.672 118.061 347.304 117.997 348.808 117.954C350.355 117.911 351.858 117.889 353.319 117.889C356.713 117.889 359.591 118.125 361.954 118.598C364.36 119.071 366.315 119.844 367.819 120.918C369.322 121.992 370.418 123.388 371.105 125.107C371.835 126.825 372.201 128.909 372.201 131.358C372.201 133.978 371.792 136.212 370.976 138.06C370.203 139.864 369.064 141.346 367.561 142.506C366.697 143.148 365.734 143.711 364.672 144.197C363.451 144.756 362.905 146.274 363.679 147.372C364.521 148.567 365.321 149.652 366.079 150.626C367.324 152.13 368.463 153.375 369.494 154.364C370.525 155.309 371.47 156.039 372.329 156.555C373.358 157.093 374.158 157.257 375.082 157.538C376.406 157.94 377.219 159.197 377.359 160.573V160.573C377.388 160.86 377.386 161.15 377.354 161.437L377.341 161.556C377.208 162.756 376.658 163.975 375.466 164.169C375.349 164.187 375.228 164.205 375.101 164.223C374.8 164.266 374.435 164.288 374.005 164.288ZM353.255 140.96C355.188 140.96 356.863 140.809 358.281 140.508C359.742 140.208 360.945 139.735 361.89 139.091C362.835 138.403 363.522 137.523 363.952 136.449C364.425 135.332 364.661 133.957 364.661 132.324C364.661 130.219 364.317 128.544 363.63 127.298C362.985 126.009 361.847 125.085 360.214 124.527C358.582 123.968 356.348 123.689 353.512 123.689C352.696 123.689 351.987 123.689 351.386 123.689C350.784 123.689 350.183 123.71 349.581 123.753C349.023 123.796 348.4 123.839 347.713 123.882V123.882C346.395 123.882 345.393 125.018 345.393 126.336V138.636C345.393 139.831 346.327 140.816 347.519 140.895V140.895C348.164 140.895 348.808 140.917 349.452 140.96C350.097 140.96 350.72 140.96 351.321 140.96C351.966 140.96 352.61 140.96 353.255 140.96Z" fill="#4D4D4D"/>
<path d="M405.548 158.488C406.966 158.488 408.298 158.337 409.544 158.037C410.833 157.693 411.993 157.135 413.024 156.361C414.055 155.588 414.957 154.557 415.73 153.268C416.504 151.936 417.084 150.261 417.47 148.241C417.9 146.222 418.115 143.838 418.115 141.088C418.115 138.296 417.9 135.89 417.47 133.871C417.041 131.852 416.439 130.176 415.666 128.844C414.936 127.513 414.033 126.481 412.959 125.751C411.928 124.978 410.768 124.441 409.479 124.14C408.234 123.796 406.923 123.625 405.548 123.625C404.217 123.625 402.928 123.796 401.682 124.14C400.479 124.441 399.341 124.978 398.266 125.751C397.235 126.481 396.333 127.534 395.56 128.909C394.787 130.241 394.185 131.916 393.756 133.935C393.369 135.912 393.176 138.317 393.176 141.153C393.176 143.902 393.369 146.265 393.756 148.241C394.185 150.218 394.787 151.872 395.56 153.204C396.376 154.535 397.3 155.588 398.331 156.361C399.362 157.135 400.479 157.693 401.682 158.037C402.928 158.337 404.217 158.488 405.548 158.488ZM405.613 164.288C403.293 164.288 401.123 164.051 399.104 163.579C397.128 163.106 395.302 162.333 393.627 161.259C391.994 160.142 390.598 158.703 389.438 156.941C388.278 155.137 387.376 152.946 386.731 150.368C386.13 147.747 385.829 144.654 385.829 141.088C385.829 137.523 386.13 134.451 386.731 131.873C387.333 129.252 388.214 127.061 389.373 125.3C390.533 123.496 391.93 122.056 393.562 120.982C395.195 119.865 396.999 119.071 398.975 118.598C400.995 118.125 403.207 117.889 405.613 117.889C407.976 117.889 410.167 118.125 412.186 118.598C414.248 119.071 416.074 119.844 417.664 120.918C419.296 121.949 420.692 123.367 421.852 125.171C423.012 126.933 423.915 129.124 424.559 131.744C425.203 134.322 425.526 137.394 425.526 140.96C425.526 144.568 425.203 147.704 424.559 150.368C423.958 152.989 423.055 155.201 421.852 157.006C420.692 158.767 419.296 160.185 417.664 161.259C416.074 162.333 414.248 163.106 412.186 163.579C410.167 164.051 407.976 164.288 405.613 164.288Z" fill="#4D4D4D"/>
<path d="M443.718 163.801C441.69 163.801 440.045 162.157 440.045 160.128V126.081C440.045 121.663 443.627 118.081 448.045 118.081H466.434C468.232 118.081 469.689 119.538 469.689 121.335V121.335C469.689 123.133 468.232 124.59 466.434 124.59H451.327C449.118 124.59 447.327 126.38 447.327 128.59V135.928C447.327 138.138 449.118 139.928 451.327 139.928H463.599C465.325 139.928 466.724 141.328 466.724 143.054V143.054C466.724 144.78 465.325 146.179 463.599 146.179H451.392C449.183 146.179 447.392 147.97 447.392 150.179V160.128C447.392 162.157 445.747 163.801 443.718 163.801V163.801Z" fill="#4D4D4D"/>
<path d="M486.345 163.801C484.37 163.801 482.768 162.2 482.768 160.225V121.657C482.768 119.682 484.37 118.081 486.345 118.081V118.081C488.32 118.081 489.922 119.682 489.922 121.657V160.225C489.922 162.2 488.32 163.801 486.345 163.801V163.801Z" fill="#4D4D4D"/>
<path d="M514.172 163.801C509.753 163.801 506.172 160.219 506.172 155.801V121.69C506.172 119.697 507.787 118.081 509.78 118.081V118.081C511.773 118.081 513.389 119.697 513.389 121.69V153.486C513.389 155.695 515.18 157.486 517.389 157.486H531.497C533.241 157.486 534.655 158.9 534.655 160.643V160.643C534.655 162.387 533.241 163.801 531.497 163.801H514.172Z" fill="#4D4D4D"/>
<path d="M555.699 163.801C551.281 163.801 547.699 160.219 547.699 155.801V126.081C547.699 121.663 551.281 118.081 555.699 118.081H574.282C576.043 118.081 577.471 119.509 577.471 121.271V121.271C577.471 123.033 576.043 124.461 574.282 124.461H559.046C556.836 124.461 555.046 126.252 555.046 128.461V133.157C555.046 135.367 556.836 137.157 559.046 137.157H572.767C574.511 137.157 575.925 138.571 575.925 140.315V140.315C575.925 142.059 574.511 143.473 572.767 143.473H559.046C556.836 143.473 555.046 145.264 555.046 147.473V153.421C555.046 155.63 556.836 157.421 559.046 157.421H575.442C577.203 157.421 578.631 158.85 578.631 160.611V160.611C578.631 162.373 577.203 163.801 575.442 163.801H555.699Z" fill="#4D4D4D"/>
<path d="M211.185 163.819C206.767 163.819 203.185 160.238 203.185 155.819L203.185 108.603C203.185 104.185 206.767 100.603 211.185 100.603H240.216C242.67 100.603 244.659 102.593 244.659 105.047V105.047C244.659 107.501 242.67 109.49 240.216 109.49H217.419C215.21 109.49 213.419 111.281 213.419 113.49V122.547C213.419 124.756 215.21 126.547 217.419 126.547H238.106C240.535 126.547 242.505 128.516 242.505 130.946V130.946C242.505 133.375 240.535 135.344 238.106 135.344H217.419C215.21 135.344 213.419 137.135 213.419 139.344L213.419 150.932C213.419 153.141 215.21 154.932 217.419 154.932H241.831C244.286 154.932 246.275 156.922 246.275 159.376V159.376C246.275 161.83 244.286 163.819 241.831 163.819H211.185Z" fill="#FE7F57"/>
<path d="M174.503 163.819C171.751 163.819 169.521 161.589 169.521 158.837V105.585C169.521 102.834 171.751 100.603 174.503 100.603V100.603C177.255 100.603 179.485 102.834 179.485 105.585V158.837C179.485 161.589 177.255 163.819 174.503 163.819V163.819Z" fill="#FE7F57"/>
<path fill-rule="evenodd" clip-rule="evenodd" d="M112.298 37.8181C83.9668 37.8181 61 60.7849 61 89.1158C61 117.447 83.9668 140.414 112.298 140.414C120.154 140.414 127.597 138.648 134.253 135.491V142.389C134.253 145.501 133.804 148.014 132.907 149.929C132.009 151.844 130.632 153.221 128.777 154.059C126.982 154.837 124.737 155.226 122.044 155.226C120.847 155.226 119.501 155.166 118.005 155.046C116.568 154.867 115.072 154.627 113.516 154.328C113.274 154.272 113.031 154.216 112.788 154.158C110.56 153.634 108.302 154.967 107.741 157.186V157.186C107.204 159.309 108.417 161.496 110.546 162.013C111.259 162.186 111.98 162.347 112.708 162.497C114.743 162.916 116.778 163.215 118.813 163.395C120.907 163.634 122.882 163.754 124.737 163.754C129.286 163.754 132.996 163.036 135.869 161.6C138.742 160.163 140.866 158.009 142.243 155.136C143.619 152.263 144.308 148.702 144.308 144.453V129.203C156.064 119.803 163.595 105.339 163.595 89.1158C163.595 60.7849 140.629 37.8181 112.298 37.8181ZM144.308 129.203V108.017C144.308 103.598 140.726 100.017 136.308 100.017H115.222C112.792 100.017 110.823 101.986 110.823 104.415V104.415C110.823 106.845 112.792 108.814 115.222 108.814H130.253C132.462 108.814 134.253 110.605 134.253 112.814V135.491C137.855 133.783 141.227 131.667 144.308 129.203Z" fill="#FE7F57"/>
</g>
</svg>
